<?xml version="1.0" encoding="UTF-8"?>
<!DOCTYPE svg PUBLIC "-//W3C//DTD SVG 1.1//EN" "http://www.w3.org/Graphics/SVG/1.1/DTD/svg11.dtd">
<!-- Creator: CorelDRAW X7 -->
<svg xmlns="http://www.w3.org/2000/svg" xml:space="preserve" width="24.4175mm" height="7.5384mm" version="1.1" style="shape-rendering:geometricPrecision; text-rendering:geometricPrecision; image-rendering:optimizeQuality; fill-rule:evenodd; clip-rule:evenodd"
viewBox="0 0 151 46"
 xmlns:xlink="http://www.w3.org/1999/xlink">
 <defs>
  <style type="text/css">
   <![CDATA[
    .fil0 {fill:#EA6267}
    .fil3 {fill:#FEFEFE}
    .fil1 {fill:#4D4D4D;fill-rule:nonzero}
    .fil2 {fill:white;fill-rule:nonzero}
   ]]>
  </style>
 </defs>
 <g id="Layer_x0020_1">
  <metadata id="CorelCorpID_0Corel-Layer"/>
  <g id="_2239325310592">
   <path class="fil0" d="M1 0l44 0c1,0 1,1 1,1l0 44c0,1 0,1 -1,1l-44 0c0,0 -1,0 -1,-1l0 -44c0,0 1,-1 1,-1z"/>
   <path class="fil1" d="M77 15c-1,0 -1,0 -1,0 0,0 0,0 -1,0 0,0 0,0 0,0 -1,0 -1,0 -2,-1 0,0 -1,0 -1,0 -1,-1 -1,-1 -2,-1 -1,0 -2,0 -2,1 -1,0 -1,0 -2,0 0,1 0,1 0,1 -1,1 -1,1 -1,2 0,1 0,1 1,2 0,0 1,0 1,1 1,0 2,0 2,1 1,0 2,0 3,0 1,1 2,1 2,1 1,1 2,1 2,2 1,0 2,1 2,2 0,1 0,2 0,3 0,1 0,2 0,4 -1,1 -1,2 -2,3 -1,0 -2,1 -3,2 -1,0 -3,0 -4,0 -1,0 -2,0 -3,0 -1,0 -2,0 -3,-1 0,0 -1,0 -2,-1 -1,0 -1,-1 -2,-1l2 -3c0,0 0,0 0,-1 0,0 1,0 1,0 0,0 1,0 1,1 0,0 1,0 1,1 1,0 1,0 2,1 1,0 2,0 3,0 1,0 2,0 3,-1 1,-1 1,-2 1,-3 0,-1 0,-2 0,-2 0,-1 -1,-1 -2,-1 0,-1 -1,-1 -2,-1 0,0 -1,-1 -2,-1 -1,0 -2,0 -3,-1 0,0 -1,-1 -2,-1 0,-1 -1,-2 -1,-2 -1,-1 -1,-2 -1,-4 0,-1 1,-2 1,-3 0,-1 1,-2 2,-2 1,-1 2,-2 3,-2 1,-1 2,-1 4,-1 1,0 3,0 4,1 2,0 3,1 4,2l-1 3zm15 9c1,0 2,0 3,-1 1,0 1,0 2,-1 0,0 1,-1 1,-1 0,-1 0,-2 0,-3 0,0 0,-1 0,-2 0,0 -1,-1 -1,-1 -1,-1 -1,-1 -2,-1 -1,0 -2,-1 -3,-1l-4 0 0 11 4 0zm0 -15c2,0 4,1 5,1 2,0 3,1 4,2 1,1 1,2 2,3 0,1 1,2 1,3 0,2 -1,3 -1,4 -1,1 -1,2 -2,3 -1,1 -2,2 -4,2 -1,1 -3,1 -5,1l-4 0 0 10 -5 0 0 -29 9 0zm47 0l0 29 -5 0 0 -19c0,0 0,-1 0,-2l-8 16c-1,1 -2,1 -2,1l-1 0c-1,0 -2,0 -2,-1l-9 -16c0,0 0,1 0,1 0,1 0,1 0,1l0 19 -4 0 0 -29 4 0c0,0 0,0 0,0 1,0 1,0 1,0 0,0 0,1 0,1 0,0 0,0 1,0l8 16c0,0 1,1 1,1 0,1 0,1 0,2 0,-1 1,-1 1,-2 0,0 0,-1 0,-1l9 -16c0,0 0,0 0,0 0,0 1,-1 1,-1 0,0 0,0 0,0 0,0 1,0 1,0l4 0zm12 29l-6 0 0 -29 6 0 0 29z"/>
   <g>
    <path class="fil2" d="M24 32c-3,0 -4,-1 -5,-2 -1,-1 -1,-2 -1,-3 10,1 17,-2 17,-8 0,-2 0,-3 -1,-3 -1,0 -4,1 -7,2 0,0 1,0 1,1 0,2 -3,3 -9,3 0,-2 1,-4 2,-5 -2,0 -4,-1 -5,-2 -1,1 -1,2 -1,3 0,0 0,0 0,0l0 4c0,0 0,0 -1,0l0 0c0,0 -1,0 -1,0l1 -4c0,0 0,0 0,0 0,-1 1,-2 1,-3 -3,3 -4,8 -4,12 0,7 3,11 11,11 5,0 8,-1 12,-3l-3 -5c-2,1 -4,2 -7,2z"/>
    <path class="fil3" d="M35 14c0,0 -6,3 -10,3 -2,0 -5,-1 -8,-2 -1,0 -1,0 -2,-1 -1,0 -2,-1 -2,-1 0,-2 9,-5 12,-5 4,1 14,5 10,6z"/>
   </g>
  </g>
 </g>
</svg>
